<svg xmlns="http://www.w3.org/2000/svg" viewBox="0 0 1651 475.6"><defs><style>.a,.b{fill:#2e3945;}.a,.c,.d,.e,.f{fill-rule:evenodd;}.c{fill:#3fa1e3;}.d{fill:#2ecc71;}.e{fill:#f1c40f;}.f{fill:#e74c3c;}</style></defs><title>bitmoji_wordmark_lightbg</title><path class="a" d="M498.4,149.6A36.7,36.7,0,1,0,535,186.4,36.7,36.7,0,0,0,498.4,149.6Z" transform="translate(-128 -148)"/><path class="a" d="M366.5,317.1c12.4-17.8,19.1-39.7,19.2-62.9.1-44.2-31-106.2-112.3-106.2H166.9c-12.7,0-22.9,4.9-27,8.7A33.8,33.8,0,0,0,128,182.3V489.6c-.1,23.7,19.6,33.7,38.4,33.7,34.5.1,112,0,129.3,0,72.1.2,114-59.5,114.2-112.5C410,364.6,390.5,336.1,366.5,317.1Zm-168.1-99h75.5c27.2,0,38.1,23.1,38,35.9,0,26.1-21.1,38.2-37.4,38.2H198.4C198.5,263.9,198.3,237.6,198.4,218.1Zm96.9,236.1c-15.8-.1-62.5.1-96.9,0,0-23.7-.1-57,0-92.1h96.9c23.3,0,46.5,17.1,46.4,47.5C341.7,433.9,321.7,454.2,295.3,454.2Z" transform="translate(-128 -148)"/><path class="a" d="M534.6,279.9c0-23.7-18.1-35.8-37-35.8s-35.9,12.8-35.9,34.5V487.1c0,46.7,72.9,48.7,72.9,0Z" transform="translate(-128 -148)"/><path class="a" d="M729.1,449.7c-22.7,0-40.9-18.9-40.8-41.7,0-10.6-.2-50.8,0-95.8h19.3c46.7.1,45.5-70.3,1.4-70.4H688.3c.1-23-.1-50.4,0-56.2,0-22.5-18.5-35.5-36.8-35.5s-35.8,13.5-35.9,36.5v55.2h-8.3c-44.1-.1-45.6,70.3,1,70.4h7.3c0,47.2.1,89.2,0,98-.1,72.1,60.7,113,114.1,113,22.1,0,36.6-17.1,36.6-36.8C766.3,468.6,754,449.7,729.1,449.7Z" transform="translate(-128 -148)"/><path class="a" d="M1377.7,241.4a141,141,0,1,0,140.6,141.3A141,141,0,0,0,1377.7,241.4Zm-.5,210.1a69.1,69.1,0,1,1,69.2-68.9A69.1,69.1,0,0,1,1377.2,451.5Z" transform="translate(-128 -148)"/><path class="a" d="M1742.2,223a36.7,36.7,0,1,0-36.6-36.8A36.9,36.9,0,0,0,1742.2,223Z" transform="translate(-128 -148)"/><path class="a" d="M1072.9,244.6c-32.2,0-60.7,10.9-80.6,29-21.4-19-48.8-29-72.7-29a128.6,128.6,0,0,0-54.2,11.6c-6.8-7.5-16.7-11.3-26.7-11.3-18.4.1-37.2,13.2-37.2,36.5V488c-.1,45.7,73.2,47.3,73.2-1.1V355.7c0-24.1,17.3-40.3,40.6-40.3s40.6,17.4,40.5,41,.1,109.7,0,131.5c-.1,45.8,72.7,47.4,72.8-1,.1-34.4,0-126.7,0-135.8,0-21,18.2-35.7,39.9-35.7,23.3,0,40.7,17.4,40.7,41s-.1,109.7-.2,131.5c-.1,45.8,72.8,47.4,72.9-1,.1-34.4,0-112.6,0-131C1182.1,284.4,1120.5,244.6,1072.9,244.6Z" transform="translate(-128 -148)"/><circle class="b" cx="1606.9" cy="186.4" r="36.9" transform="translate(769.3 1492.1) rotate(-70.6)"/><path class="a" d="M1778.6,279.9c0-23.7-18.1-35.8-37-35.8s-35.4,12.8-35.5,34.5V487.1c0,46.7,72.5,48.7,72.5,0C1778.6,474,1778.5,293,1778.6,279.9Z" transform="translate(-128 -148)"/><path class="a" d="M1571.1,281.4V510.9c0,21.1-14.6,39.8-39.4,39.8s-39.2,18.3-39.2,36.3c0,19.7,16.1,36.6,39.5,36.6,59.9,0,111.3-42.7,111.3-112v-230C1643.3,232.6,1571.1,232.4,1571.1,281.4Z" transform="translate(-128 -148)"/><polygon class="c" points="29.9 471 368.9 471 414 410 29.9 410 29.9 471"/><polygon class="d" points="369 471 736 471 781 410 414.1 410 369 471"/><polygon class="e" points="735.9 471 1102.7 471 1147.9 410 781 410 735.9 471"/><path class="c" d="M189,588.5a30.5,30.5,0,1,1-30.5-30.4A30.6,30.6,0,0,1,189,588.5Z" transform="translate(-128 -148)"/><path class="f" d="M1778.1,588.5a30.5,30.5,0,1,1-30.4-30.4A30.5,30.5,0,0,1,1778.1,588.5Z" transform="translate(-128 -148)"/><path class="f" d="M1462.7,586.9a65.6,65.6,0,0,1,6.6-28.9H1275.9l-45.2,61h240.2A66.9,66.9,0,0,1,1462.7,586.9Z" transform="translate(-128 -148)"/><path class="f" d="M1665.7,558a137.9,137.9,0,0,1-40.1,61h122.3l.3-61Z" transform="translate(-128 -148)"/></svg>